<?xml version="1.0" encoding="utf-8"?>
<!-- Svg Vector Icons : http://www.onlinewebfonts.com/icon -->
<!DOCTYPE svg PUBLIC "-//W3C//DTD SVG 1.1//EN" "http://www.w3.org/Graphics/SVG/1.1/DTD/svg11.dtd">
<svg version="1.1" xmlns="http://www.w3.org/2000/svg" xmlns:xlink="http://www.w3.org/1999/xlink" x="0px" y="0px" viewBox="0 0 256 256" enable-background="new 0 0 256 256" xml:space="preserve">
<metadata> Svg Vector Icons : http://www.onlinewebfonts.com/icon </metadata>
<g><g><path fill="#000000" d="M106.8,228.7c-3.4,0-5.5-3.1-5.5-7.9c0-4.9,2.2-8,5.5-8c3.8,0,5.4,4,5.4,7.9C112.3,225.5,110.1,228.7,106.8,228.7z M33.2,194v8.1h13.2v41.1c0,1.6,1.3,2.8,2.8,2.8h157.6c1.6,0,2.8-1.3,2.8-2.8v-41.1h13.2V194H33.2z M87.6,234.5h-7.5v-10.9H72v10.9h-7.5v-27.7H72v10h8.1v-10h7.5V234.5z M106.5,235c-7.7,0-13.1-5.8-13.1-14.1c0-8.5,5.5-14.4,13.5-14.4c7.9,0,13.2,5.6,13.2,14C120.1,229.3,114.8,235,106.5,235z M144.4,213.4h-7.1v21.1h-7.5v-21.1h-7v-6.6h21.6V213.4L144.4,213.4z M169.3,234.5h-18.2v-27.7h17.7v6.5h-10.2v3.8h9.6v6.4h-9.6v4.6h10.7L169.3,234.5L169.3,234.5z M193.9,234.5H176v-27.7h7.5V228h10.4V234.5z M40.6,109.6l8.8-5.2l8.8,5.2l-2.2-10l7.7-6.8l-10.2-1l-4.1-9.4l-4.1,9.4l-10.2,1l7.7,6.8L40.6,109.6z M79.4,72.6l8.8-5.2l8.8,5.2l-2.2-10l7.7-6.8l-10.2-1l-4.1-9.4l-4.1,9.4l-10.2,1l7.7,6.8L79.4,72.6z M119.2,37.2L128,32l8.8,5.2l-2.2-10l7.7-6.8l-10.2-1L128,10l-4.1,9.4l-10.2,1l7.7,6.8L119.2,37.2z M158.9,72.6l8.8-5.2l8.8,5.2l-2.2-10l7.7-6.8l-10.2-1l-4.1-9.4l-4.1,9.4l-10.2,1l7.7,6.8L158.9,72.6z M197.7,109.6l8.8-5.2l8.8,5.2l-2.2-10l7.7-6.8l-10.2-1l-4.1-9.4l-4.1,9.4l-10.2,1l7.7,6.8L197.7,109.6z M111.9,47.9v137.8h8.3v-16.1c0-4.5,3.5-8.1,7.8-8.1c4.3,0,7.8,3.6,7.8,8.1v16.1h8.3V47.9H111.9z M135.8,143.8h-15.5v-15.6h15.5V143.8z M135.8,107.7h-15.5V92.1h15.5V107.7z M135.8,71.4h-15.5V55.8h15.5V71.4z M34,121.4v64.5h30.8v-64.5H34z M57.2,143.8H41.7v-15.6h15.6V143.8z M72.9,84.9v28.4v72.6h30.7v-101H72.9z M96.1,143.8H80.5v-15.6h15.5V143.8z M96.1,107.7H80.5V92.1h15.5V107.7z M152.4,84.9v101H183v-72.6V84.9H152.4z M175.4,143.8h-15.5v-15.6h15.5V143.8z M175.4,107.7h-15.5V92.1h15.5V107.7z M191.2,121.4v64.5h30.8v-64.5H191.2z M214.3,143.8h-15.6v-15.6h15.6V143.8z"/></g></g>
</svg>